<svg width="547" height="265" viewBox="0 0 547 265" fill="none" xmlns="http://www.w3.org/2000/svg">
<path d="M36.2926 107.182C36.0161 103.881 34.6681 101.211 32.2486 99.1715C29.8464 97.1322 26.7356 96.1126 22.9162 96.1126C20.3411 96.1126 18.0513 96.5878 16.0465 97.5384C14.0418 98.4889 12.4691 99.785 11.3285 101.427C10.1879 103.069 9.61754 104.952 9.61754 107.078C9.61754 108.443 9.87678 109.679 10.3952 110.785C10.931 111.874 11.6828 112.85 12.6506 113.714C13.6184 114.561 14.7676 115.304 16.0984 115.944C17.4291 116.583 18.8981 117.145 20.5053 117.629L26.3121 119.34C28.2996 119.945 30.1315 120.645 31.8079 121.44C33.5015 122.235 34.9705 123.185 36.2148 124.291C37.4764 125.38 38.4529 126.659 39.1442 128.128C39.8527 129.597 40.207 131.29 40.207 133.209C40.207 136.009 39.4812 138.514 38.0295 140.727C36.5951 142.939 34.5471 144.684 31.8857 145.963C29.2415 147.225 26.122 147.855 22.5273 147.855C19.1055 147.855 16.1243 147.277 13.5838 146.119C11.0606 144.961 9.06451 143.353 7.59553 141.297C6.12654 139.223 5.29699 136.838 5.10689 134.142H8.42507C8.59789 136.337 9.29782 138.238 10.5249 139.845C11.7692 141.435 13.4196 142.662 15.4762 143.526C17.5328 144.39 19.8832 144.822 22.5273 144.822C25.3789 144.822 27.8935 144.339 30.071 143.371C32.2486 142.386 33.9509 141.02 35.1779 139.275C36.405 137.529 37.0185 135.499 37.0185 133.183C37.0185 131.316 36.5778 129.718 35.6964 128.387C34.815 127.056 33.5102 125.907 31.782 124.939C30.071 123.971 27.9453 123.107 25.4048 122.347L19.2092 120.48C15.0614 119.219 11.8902 117.499 9.69531 115.322C7.51776 113.144 6.42898 110.431 6.42898 107.182C6.42898 104.451 7.15483 102.032 8.60653 99.9233C10.0582 97.7976 12.0284 96.1299 14.517 94.9201C17.023 93.7103 19.8486 93.1055 22.994 93.1055C26.1566 93.1055 28.9477 93.719 31.3672 94.946C33.7867 96.1558 35.705 97.8235 37.1222 99.9492C38.5393 102.058 39.3256 104.469 39.4812 107.182H36.2926ZM95.2422 120.455C95.2422 125.933 94.2917 130.72 92.3906 134.816C90.4896 138.895 87.8454 142.066 84.4581 144.33C81.0881 146.594 77.1996 147.726 72.7926 147.726C68.3684 147.726 64.4626 146.594 61.0753 144.33C57.7053 142.049 55.0697 138.869 53.1687 134.79C51.2676 130.694 50.3171 125.916 50.3171 120.455C50.3171 114.976 51.2676 110.198 53.1687 106.119C55.087 102.04 57.7312 98.8691 61.1012 96.6051C64.4712 94.3239 68.3684 93.1832 72.7926 93.1832C77.1996 93.1832 81.0881 94.3152 84.4581 96.5792C87.8454 98.8432 90.4896 102.023 92.3906 106.119C94.2917 110.198 95.2422 114.976 95.2422 120.455ZM92.0795 120.455C92.0795 115.529 91.25 111.26 89.5909 107.648C87.9491 104.036 85.6765 101.245 82.7731 99.2752C79.8697 97.2878 76.5429 96.294 72.7926 96.294C69.0424 96.294 65.7156 97.2791 62.8121 99.2493C59.9087 101.202 57.6275 103.993 55.9684 107.623C54.3266 111.234 53.5057 115.512 53.5057 120.455C53.5057 125.345 54.3179 129.605 55.9425 133.235C57.5843 136.847 59.8569 139.646 62.7603 141.634C65.6637 143.621 69.0078 144.615 72.7926 144.615C76.5429 144.615 79.8697 143.63 82.7731 141.66C85.6765 139.672 87.9491 136.873 89.5909 133.261C91.25 129.649 92.0795 125.38 92.0795 120.455ZM107.906 147V93.9091H111.146V143.993H137.069V147H107.906ZM150.271 147H146.849L166.006 93.9091H169.739L188.897 147H185.475L168.002 98.0827H167.743L150.271 147ZM155.119 127.013H180.627V130.02H155.119V127.013ZM198.799 147V93.9091H215.157C218.51 93.9091 221.396 94.5658 223.815 95.8793C226.235 97.1927 228.093 99.016 229.389 101.349C230.685 103.665 231.333 106.361 231.333 109.437C231.333 112.479 230.685 115.158 229.389 117.473C228.093 119.772 226.235 121.569 223.815 122.865C221.413 124.162 218.536 124.81 215.183 124.81H200.536V121.777H215.105C217.836 121.777 220.169 121.267 222.104 120.247C224.04 119.228 225.526 117.802 226.563 115.97C227.6 114.121 228.119 111.943 228.119 109.437C228.119 106.914 227.6 104.719 226.563 102.853C225.526 100.969 224.031 99.5085 222.078 98.4716C220.143 97.4347 217.81 96.9162 215.079 96.9162H202.04V147H198.799ZM220.601 122.943L233.666 147H229.933L216.946 122.943H220.601ZM293.432 107.182C293.156 103.881 291.808 101.211 289.388 99.1715C286.986 97.1322 283.875 96.1126 280.056 96.1126C277.481 96.1126 275.191 96.5878 273.186 97.5384C271.181 98.4889 269.609 99.785 268.468 101.427C267.328 103.069 266.757 104.952 266.757 107.078C266.757 108.443 267.016 109.679 267.535 110.785C268.071 111.874 268.822 112.85 269.79 113.714C270.758 114.561 271.907 115.304 273.238 115.944C274.569 116.583 276.038 117.145 277.645 117.629L283.452 119.34C285.439 119.945 287.271 120.645 288.948 121.44C290.641 122.235 292.11 123.185 293.354 124.291C294.616 125.38 295.593 126.659 296.284 128.128C296.992 129.597 297.347 131.29 297.347 133.209C297.347 136.009 296.621 138.514 295.169 140.727C293.735 142.939 291.687 144.684 289.025 145.963C286.381 147.225 283.262 147.855 279.667 147.855C276.245 147.855 273.264 147.277 270.723 146.119C268.2 144.961 266.204 143.353 264.735 141.297C263.266 139.223 262.437 136.838 262.247 134.142H265.565C265.738 136.337 266.437 138.238 267.665 139.845C268.909 141.435 270.559 142.662 272.616 143.526C274.672 144.39 277.023 144.822 279.667 144.822C282.519 144.822 285.033 144.339 287.211 143.371C289.388 142.386 291.091 141.02 292.318 139.275C293.545 137.529 294.158 135.499 294.158 133.183C294.158 131.316 293.717 129.718 292.836 128.387C291.955 127.056 290.65 125.907 288.922 124.939C287.211 123.971 285.085 123.107 282.544 122.347L276.349 120.48C272.201 119.219 269.03 117.499 266.835 115.322C264.657 113.144 263.569 110.431 263.569 107.182C263.569 104.451 264.294 102.032 265.746 99.9233C267.198 97.7976 269.168 96.1299 271.657 94.9201C274.163 93.7103 276.988 93.1055 280.134 93.1055C283.296 93.1055 286.087 93.719 288.507 94.946C290.926 96.1558 292.845 97.8235 294.262 99.9492C295.679 102.058 296.465 104.469 296.621 107.182H293.432ZM304.761 93.9091H308.597L325.318 119.521H325.681L342.401 93.9091H346.238L327.133 122.917V147H323.866V122.917L304.761 93.9091ZM384.825 107.182C384.548 103.881 383.2 101.211 380.781 99.1715C378.379 97.1322 375.268 96.1126 371.448 96.1126C368.873 96.1126 366.583 96.5878 364.579 97.5384C362.574 98.4889 361.001 99.785 359.861 101.427C358.72 103.069 358.15 104.952 358.15 107.078C358.15 108.443 358.409 109.679 358.927 110.785C359.463 111.874 360.215 112.85 361.183 113.714C362.151 114.561 363.3 115.304 364.631 115.944C365.961 116.583 367.43 117.145 369.038 117.629L374.844 119.34C376.832 119.945 378.664 120.645 380.34 121.44C382.034 122.235 383.503 123.185 384.747 124.291C386.009 125.38 386.985 126.659 387.676 128.128C388.385 129.597 388.739 131.29 388.739 133.209C388.739 136.009 388.013 138.514 386.562 140.727C385.127 142.939 383.079 144.684 380.418 145.963C377.774 147.225 374.654 147.855 371.06 147.855C367.638 147.855 364.657 147.277 362.116 146.119C359.593 144.961 357.597 143.353 356.128 141.297C354.659 139.223 353.829 136.838 353.639 134.142H356.957C357.13 136.337 357.83 138.238 359.057 139.845C360.301 141.435 361.952 142.662 364.008 143.526C366.065 144.39 368.415 144.822 371.06 144.822C373.911 144.822 376.426 144.339 378.603 143.371C380.781 142.386 382.483 141.02 383.71 139.275C384.937 137.529 385.551 135.499 385.551 133.183C385.551 131.316 385.11 129.718 384.229 128.387C383.347 127.056 382.042 125.907 380.314 124.939C378.603 123.971 376.478 123.107 373.937 122.347L367.741 120.48C363.594 119.219 360.422 117.499 358.228 115.322C356.05 113.144 354.961 110.431 354.961 107.182C354.961 104.451 355.687 102.032 357.139 99.9233C358.59 97.7976 360.561 96.1299 363.049 94.9201C365.555 93.7103 368.381 93.1055 371.526 93.1055C374.689 93.1055 377.48 93.719 379.899 94.946C382.319 96.1558 384.237 97.8235 385.654 99.9492C387.072 102.058 387.858 104.469 388.013 107.182H384.825ZM398.02 96.9162V93.9091H435.22V96.9162H418.24V147H415V96.9162H398.02ZM447.028 147V93.9091H476.58V96.9162H450.268V118.925H474.999V121.932H450.268V143.993H477.203V147H447.028ZM490.015 93.9091H493.541L513.994 142.334H514.357L534.811 93.9091H538.336V147H535.225V101.608H534.914L515.705 147H512.646L493.437 101.608H493.126V147H490.015V93.9091Z" fill="white"/>
<mask id="mask0_2_169" style="mask-type:alpha" maskUnits="userSpaceOnUse" x="151" y="36" width="269" height="194">
<path fill-rule="evenodd" clip-rule="evenodd" d="M219.058 223.906C248.583 217.575 284.619 202.204 320.098 179.235C355.577 156.266 383.629 130.148 400.329 106.554C408.683 94.7518 414.134 83.6672 416.309 73.9909C418.484 64.3173 417.349 56.2525 412.85 50.1972C408.351 44.1419 400.657 40.3233 390.189 38.8343C379.718 37.345 366.686 38.2266 351.917 41.3937C322.391 47.7252 286.355 63.0966 250.876 86.0653C215.397 109.034 187.346 135.152 170.646 158.746C162.292 170.548 156.84 181.633 154.665 191.309C152.491 200.983 153.626 209.048 158.125 215.103C162.624 221.158 170.318 224.977 180.786 226.466C191.256 227.955 204.289 227.074 219.058 223.906ZM156.446 216.19C176.22 242.805 250.023 226.978 321.291 180.84C392.559 134.703 434.303 75.725 414.529 49.1103C394.755 22.4956 320.951 38.3222 249.684 84.4599C178.416 130.598 136.672 189.575 156.446 216.19Z" fill="white"/>
</mask>
<g mask="url(#mask0_2_169)">
<path d="M248.205 -1.2725L532.5 -1.2725L285.828 241.392L108.158 241.665L183 140L186 152.5L234 121L227.5 93L248.205 -1.2725Z" fill="white"/>
</g>
</svg>
